<svg width="30" height="30" viewBox="0 0 24 24" fill="none" xmlns="http://www.w3.org/2000/svg">
<path fill-rule="evenodd" clip-rule="evenodd" d="M18.2099 5.19099C17.7862 5.26637 17.2071 5.45801 16.363 5.73935L9.87206 7.90302C9.05 8.17704 8.45184 8.37659 8.01738 8.5461C7.56592 8.72224 7.36784 8.83882 7.28488 8.91854C6.67066 9.50878 6.67066 10.4914 7.28488 11.0817C7.36784 11.1614 7.56592 11.278 8.01738 11.4541C8.45184 11.6236 9.05 11.8232 9.87206 12.0972C9.88513 12.1015 9.89802 12.1058 9.91073 12.1101C10.2027 12.2073 10.4043 12.2745 10.5873 12.3713C11.031 12.6059 11.3938 12.9687 11.6285 13.4125C11.7253 13.5955 11.7924 13.7971 11.8897 14.089C11.8939 14.1018 11.8982 14.1146 11.9026 14.1277C12.1766 14.9498 12.3761 15.5479 12.5457 15.9824C12.7218 16.4338 12.8384 16.6319 12.9181 16.7149C13.5083 17.3291 14.491 17.3291 15.0812 16.7149C15.1609 16.6319 15.2775 16.4338 15.4537 15.9824C15.6232 15.5479 15.8227 14.9498 16.0967 14.1277L18.2604 7.63672C18.5418 6.79269 18.7334 6.21361 18.8088 5.78987C18.8848 5.36251 18.8098 5.26542 18.7721 5.22769C18.7343 5.18996 18.6373 5.11497 18.2099 5.19099ZM18.0348 4.20645C18.5445 4.11576 19.0799 4.1213 19.4792 4.52058C19.8785 4.91986 19.884 5.45523 19.7933 5.96502C19.7035 6.46978 19.4871 7.11891 19.2227 7.91206L19.2091 7.95295L17.0454 14.4439L17.0405 14.4588C16.7724 15.263 16.565 15.8851 16.3853 16.3459C16.211 16.7925 16.0352 17.1654 15.8023 17.4078C14.8185 18.4315 13.1808 18.4315 12.1971 17.4078C11.9642 17.1654 11.7883 16.7925 11.6141 16.3459C11.4343 15.8851 11.2269 15.263 10.9589 14.4588L10.9539 14.4439C10.8388 14.0988 10.7979 13.9809 10.7445 13.88C10.6037 13.6137 10.386 13.3961 10.1198 13.2553C10.0189 13.2019 9.90099 13.1609 9.55584 13.0459L9.54094 13.0409C8.73675 12.7728 8.11465 12.5655 7.65389 12.3857C7.20729 12.2115 6.83435 12.0356 6.59199 11.8027C5.56829 10.819 5.56829 9.18122 6.59199 8.19749C6.83435 7.9646 7.20729 7.78875 7.65389 7.6145C8.11466 7.43472 8.73678 7.22735 9.54099 6.95928L9.55584 6.95433L16.0468 4.79067L16.0877 4.77706C16.8808 4.51264 17.53 4.29624 18.0348 4.20645Z" fill="white"/>
</svg>
